<svg xmlns="http://www.w3.org/2000/svg" width="336" height="216">
  <path fill="#FFF" d="M0 0h336v216H0z"/>
  <path fill="#FD0" d="M168 71.5c-39.94432 0-72.5 31.54893-72.5 70.5v3.5h70v-45h-16v9h-9v9h-9v9h-13.78125c2.21263-20.40729 23.5169-37 50.28125-37s48.06862 16.59271 50.28125 37H204.5v-9h-9v-9h-9v-9h-16v45h70V142c0-38.95107-32.55568-70.5-72.5-70.5zm0 7c35.04842 0 63.43884 26.58097 65.31836 60H177.5v-31h2v9h9v9h9v9h28V131c0-26.62195-26.1354-47.5-57.5-47.5s-57.5 20.87805-57.5 47.5v3.5h28v-9h9v-9h9v-9h2v31h-55.81836c1.87952-33.41903 30.26994-60 65.31836-60z"/>
</svg>
