<svg width="900" height="600" xmlns="http://www.w3.org/2000/svg" viewBox="0 0 900 600">
  <rect x="0" y="0" width="900" height="600" style="fill:#003399; stroke:none;" />
  <rect x="0" y="0" width="900" height="300" style="fill:#66ccff; stroke:none;" />
  <circle cx="450" cy="300" r="213" style="fill:#ffcc00; stroke:#339933;" stroke-width="14" />
  <path transform="translate(330,182)" style="fill:#000000; stroke:none;" fill="#000000" d="M 18,0 L 152,0 A 18,18,0 0 1 170,18 L 170,53 134,53 134,36 A 6,6,0 0 0 128,30 L 42,30 A 6,6,0 0 0 36,36 L 36,129 A 6,6,0 0 0 42,135 L 128,135 A 6,6,0 0 0 134,129 L 134,114 170,114 170,147 A 18,18,0 0 1 152,165 L 18,165 A 18,18,0 0 1 0,147 L 0,18 A 18,18,0 0 1 18,0 z" />
  <path transform="translate(406,254)" style="fill:#000000; stroke:none;" fill="#000000" d="M 18,0 L 152,0 A 18,18,0 0 1 170,18 L 170,53 134,53 134,36 A 6,6,0 0 0 128,30 L 42,30 A 6,6,0 0 0 36,36 L 36,129 A 6,6,0 0 0 42,135 L 128,135 A 6,6,0 0 0 134,129 L 134,114 170,114 170,147 A 18,18,0 0 1 152,165 L 18,165 A 18,18,0 0 1 0,147 L 0,18 A 18,18,0 0 1 18,0 z" />
</svg>