<?xml version="1.0" encoding="UTF-8" standalone="no"?>
<svg xmlns="http://www.w3.org/2000/svg" xmlns:xlink="http://www.w3.org/1999/xlink" width="700" height="466.66669">
  <defs>
    <path id="a" d="M0 0z"/>
  </defs>
  <defs>
    <clipPath id="b" clipPathUnits="userSpaceOnUse">
      <use xlink:href="#a"/>
    </clipPath>
    <clipPath id="c" clipPathUnits="userSpaceOnUse">
      <use xlink:href="#a"/>
    </clipPath>
    <clipPath id="d" clipPathUnits="userSpaceOnUse">
      <use xlink:href="#a"/>
    </clipPath>
    <clipPath id="e" clipPathUnits="userSpaceOnUse">
      <use xlink:href="#a"/>
    </clipPath>
    <clipPath id="m" clipPathUnits="userSpaceOnUse">
      <use xlink:href="#a"/>
    </clipPath>
    <clipPath id="l" clipPathUnits="userSpaceOnUse">
      <use xlink:href="#a"/>
    </clipPath>
    <clipPath id="k" clipPathUnits="userSpaceOnUse">
      <use xlink:href="#a"/>
    </clipPath>
    <clipPath id="j" clipPathUnits="userSpaceOnUse">
      <use xlink:href="#a"/>
    </clipPath>
    <clipPath id="i">
      <use xlink:href="#a"/>
    </clipPath>
    <clipPath id="h">
      <use xlink:href="#a"/>
    </clipPath>
    <clipPath id="g">
      <use xlink:href="#a"/>
    </clipPath>
    <clipPath id="f">
      <use xlink:href="#a"/>
    </clipPath>
  </defs>
  <path fill="#fff" d="M0 .0000035h700V466.66668H0z"/>
  <path fill="#a07332" d="M585.47535 172.63091c-63.33782 63.43605-161.18617 152.93501-230.8184 192.74459-70.44504 40.27427-92.75047 13.55769-66.90452-34.93438 36.26467-68.03965 85.84764-119.93216 136.29572-174.42271-8.59772 17.37341-37.36746 82.96318-7.95511 98.01363 39.14323 20.02979 134.86435-53.25355 169.38231-81.40113z"/>
  <path fill="#2d3c5a" d="M114.52499 294.03579C177.8628 230.59973 275.71115 141.10078 345.3434 101.2912c70.44504-40.274276 92.75046-13.557696 66.9045 34.93437-36.26466 68.03966-85.84762 119.93216-136.29571 174.42271 8.59773-17.37341 37.36747-82.96317 7.95511-98.01363-39.14322-20.02978-134.86434 53.25356-169.38231 81.40114z"/>
  <g transform="translate(114.52482 81.413894) scale(.30384)">
    <path fill="#2d3c5a" d="M905.84768 586.79672c-47.93644 72.26502-145.37964 91.98718-217.64446 44.05086l173.5936-261.69529c72.26479 47.93629 91.98726 145.37941 44.05086 217.64443z"/>
    <path fill="#a07332" d="M688.20322 630.84758c-72.26482-47.93629-91.98733-145.37941-44.05086-217.64443 47.93646-72.26505 145.37961-91.98718 217.64446-44.05086z"/>
  </g>
  <g fill="#0f0" clip-path="url(#b)" transform="matrix(.5495 0 0 -.5495 759.56158 330.9951)">
    <text transform="matrix(1 0 0 -1 47.36952 20.40192)">
      <tspan x="0 3.96 7.9200001 11.88 15.84 17.82 20.900881 24.86088 28.820881 30.80088 34.76088 38.720879 40.700878 44.660881 48.62088 50.822639 54.782639 58.742641 60.944401 64.904404" y="0" font-family="Times" font-size="7.92000008" style="-inkscape-font-specification:Times-Roman">2008 Jun 12 03:54:25</tspan>
    </text>
  </g>
  <g fill="#0f0" clip-path="url(#c)" transform="matrix(.5495 0 0 -.5495 759.56158 330.9951)">
    <text transform="matrix(1 0 0 -1 134.16096 20.88)">
      <tspan x="0 5.0251198 11.21256 15.85488 17.594879 19.91256 21.652559 27.84 30.930241 33.247921 35.1828 37.11768 40.597679 42.337681 48.907921 51.998161 53.933041 57.41304 60.503281 62.43816" y="0" font-family="Times" font-size="6.96000004" style="-inkscape-font-specification:Times-Roman">OMC - Martin Weinelt</tspan>
    </text>
  </g>
  <g fill="#0f0" clip-path="url(#d)" transform="matrix(.5495 0 0 -.5495 759.56158 330.9951)">
    <text transform="matrix(1 0 0 -1 408.31536 40.07568)">
      <tspan x="0 6.96" y="0" font-family="Times" font-size="13.92000008" style="-inkscape-font-specification:Times-Roman">km</tspan>
    </text>
  </g>
  <g fill="#0f0" clip-path="url(#b)" transform="matrix(.28966 0 0 -.28966 478.04783 280.05799)">
    <text transform="matrix(1 0 0 -1 47.36952 20.40192)">
      <tspan x="0 3.96 7.9200001 11.88 15.84 17.82 20.900881 24.86088 28.820881 30.80088 34.76088 38.720879 40.700878 44.660881 48.62088 50.822639 54.782639 58.742641 60.944401 64.904404" y="0" font-family="Times" font-size="7.92000008" style="-inkscape-font-specification:Times-Roman">2008 Jun 12 04:45:24</tspan>
    </text>
  </g>
  <g fill="#0f0" clip-path="url(#c)" transform="matrix(.28966 0 0 -.28966 478.04783 280.05799)">
    <text transform="matrix(1 0 0 -1 134.16096 20.88)">
      <tspan x="0 5.0251198 11.21256 15.85488 17.594879 19.91256 21.652559 27.84 30.930241 33.247921 35.1828 37.11768 40.597679 42.337681 48.907921 51.998161 53.933041 57.41304 60.503281 62.43816" y="0" font-family="Times" font-size="6.96000004" style="-inkscape-font-specification:Times-Roman">OMC - Martin Weinelt</tspan>
    </text>
  </g>
  <g fill="#0f0" clip-path="url(#e)" transform="matrix(.28966 0 0 -.28966 478.04783 280.05799)">
    <text transform="matrix(1 0 0 -1 408.31536 40.07568)">
      <tspan x="0 6.96" y="0" font-family="Times" font-size="13.92000008" style="-inkscape-font-specification:Times-Roman">km</tspan>
    </text>
  </g>
  <g fill="#0f0" clip-path="url(#b)" transform="matrix(.55206 0 0 -.55206 5195.6399 331.85825)">
    <text transform="matrix(1 0 0 -1 47.36952 20.40192)">
        <tspan x="0 3.96 7.9200001 11.88 15.84 17.82 20.900881 24.86088 28.820881 30.80088 34.76088 38.720879 40.700878 44.660881 48.62088 50.822639 54.782639 58.742641 60.944401 64.904404" y="0" font-family="Times" font-size="7.92000008" style="-inkscape-font-specification:Times-Roman">2008 Jun 12 03:54:25</tspan>
      </text>
  </g>
  <g fill="#0f0" clip-path="url(#c)" transform="matrix(.55206 0 0 -.55206 5195.6399 331.85825)">
    <text transform="matrix(1 0 0 -1 134.16096 20.88)">
        <tspan x="0 5.0251198 11.21256 15.85488 17.594879 19.91256 21.652559 27.84 30.930241 33.247921 35.1828 37.11768 40.597679 42.337681 48.907921 51.998161 53.933041 57.41304 60.503281 62.43816" y="0" font-family="Times" font-size="6.96000004" style="-inkscape-font-specification:Times-Roman">OMC - Martin Weinelt</tspan>
      </text>
  </g>
  <g fill="#0f0" clip-path="url(#d)" transform="matrix(.55206 0 0 -.55206 5195.6399 331.85825)">
    <text transform="matrix(1 0 0 -1 408.31536 40.07568)">
        <tspan x="0 6.96" y="0" font-family="Times" font-size="13.92000008" style="-inkscape-font-specification:Times-Roman">km</tspan>
      </text>
  </g>
  <g fill="#0f0" clip-path="url(#b)" transform="matrix(.29101 0 0 -.29101 4912.8142 280.68376)">
    <text transform="matrix(1 0 0 -1 47.36952 20.40192)">
        <tspan x="0 3.96 7.9200001 11.88 15.84 17.82 20.900881 24.86088 28.820881 30.80088 34.76088 38.720879 40.700878 44.660881 48.62088 50.822639 54.782639 58.742641 60.944401 64.904404" y="0" font-family="Times" font-size="7.92000008" style="-inkscape-font-specification:Times-Roman">2008 Jun 12 04:45:24</tspan>
      </text>
  </g>
  <g fill="#0f0" clip-path="url(#c)" transform="matrix(.29101 0 0 -.29101 4912.8142 280.68376)">
    <text transform="matrix(1 0 0 -1 134.16096 20.88)">
        <tspan x="0 5.0251198 11.21256 15.85488 17.594879 19.91256 21.652559 27.84 30.930241 33.247921 35.1828 37.11768 40.597679 42.337681 48.907921 51.998161 53.933041 57.41304 60.503281 62.43816" y="0" font-family="Times" font-size="6.96000004" style="-inkscape-font-specification:Times-Roman">OMC - Martin Weinelt</tspan>
      </text>
  </g>
  <g fill="#0f0" clip-path="url(#e)" transform="matrix(.29101 0 0 -.29101 4912.8142 280.68376)">
    <text transform="matrix(1 0 0 -1 408.31536 40.07568)">
        <tspan x="0 6.96" y="0" font-family="Times" font-size="13.92000008" style="-inkscape-font-specification:Times-Roman">km</tspan>
      </text>
  </g>
  <g fill="#0f0" clip-path="url(#b)" transform="matrix(.5495 0 0 -.5495 779.86231 328.03979)">
    <text transform="matrix(1 0 0 -1 47.36952 20.40192)">
      <tspan x="0 3.96 7.9200001 11.88 15.84 17.82 20.900881 24.86088 28.820881 30.80088 34.76088 38.720879 40.700878 44.660881 48.62088 50.822639 54.782639 58.742641 60.944401 64.904404" y="0" font-family="Times" font-size="7.92000008" style="-inkscape-font-specification:Times-Roman">2008 Jun 12 03:54:25</tspan>
    </text>
  </g>
  <g fill="#0f0" clip-path="url(#c)" transform="matrix(.5495 0 0 -.5495 779.86231 328.03979)">
    <text transform="matrix(1 0 0 -1 134.16096 20.88)">
      <tspan x="0 5.0251198 11.21256 15.85488 17.594879 19.91256 21.652559 27.84 30.930241 33.247921 35.1828 37.11768 40.597679 42.337681 48.907921 51.998161 53.933041 57.41304 60.503281 62.43816" y="0" font-family="Times" font-size="6.96000004" style="-inkscape-font-specification:Times-Roman">OMC - Martin Weinelt</tspan>
    </text>
  </g>
  <g fill="#0f0" clip-path="url(#d)" transform="matrix(.5495 0 0 -.5495 779.86231 328.03979)">
    <text transform="matrix(1 0 0 -1 408.31536 40.07568)">
      <tspan x="0 6.96" y="0" font-family="Times" font-size="13.92000008" style="-inkscape-font-specification:Times-Roman">km</tspan>
    </text>
  </g>
  <g fill="#0f0" clip-path="url(#b)" transform="matrix(.28966 0 0 -.28966 498.34856 277.10268)">
    <text transform="matrix(1 0 0 -1 47.36952 20.40192)">
      <tspan x="0 3.96 7.9200001 11.88 15.84 17.82 20.900881 24.86088 28.820881 30.80088 34.76088 38.720879 40.700878 44.660881 48.62088 50.822639 54.782639 58.742641 60.944401 64.904404" y="0" font-family="Times" font-size="7.92000008" style="-inkscape-font-specification:Times-Roman">2008 Jun 12 04:45:24</tspan>
    </text>
  </g>
  <g fill="#0f0" clip-path="url(#c)" transform="matrix(.28966 0 0 -.28966 498.34856 277.10268)">
    <text transform="matrix(1 0 0 -1 134.16096 20.88)">
      <tspan x="0 5.0251198 11.21256 15.85488 17.594879 19.91256 21.652559 27.84 30.930241 33.247921 35.1828 37.11768 40.597679 42.337681 48.907921 51.998161 53.933041 57.41304 60.503281 62.43816" y="0" font-family="Times" font-size="6.96000004" style="-inkscape-font-specification:Times-Roman">OMC - Martin Weinelt</tspan>
    </text>
  </g>
  <g fill="#0f0" clip-path="url(#e)" transform="matrix(.28966 0 0 -.28966 498.34856 277.10268)">
    <text transform="matrix(1 0 0 -1 408.31536 40.07568)">
      <tspan x="0 6.96" y="0" font-family="Times" font-size="13.92000008" style="-inkscape-font-specification:Times-Roman">km</tspan>
    </text>
  </g>
  <g fill="#0f0" clip-path="url(#b)" transform="matrix(.55206 0 0 -.55206 5215.9406 328.90294)">
    <text transform="matrix(1 0 0 -1 47.36952 20.40192)">
        <tspan x="0 3.96 7.9200001 11.88 15.84 17.82 20.900881 24.86088 28.820881 30.80088 34.76088 38.720879 40.700878 44.660881 48.62088 50.822639 54.782639 58.742641 60.944401 64.904404" y="0" font-family="Times" font-size="7.92000008" style="-inkscape-font-specification:Times-Roman">2008 Jun 12 03:54:25</tspan>
      </text>
  </g>
  <g fill="#0f0" clip-path="url(#c)" transform="matrix(.55206 0 0 -.55206 5215.9406 328.90294)">
    <text transform="matrix(1 0 0 -1 134.16096 20.88)">
        <tspan x="0 5.0251198 11.21256 15.85488 17.594879 19.91256 21.652559 27.84 30.930241 33.247921 35.1828 37.11768 40.597679 42.337681 48.907921 51.998161 53.933041 57.41304 60.503281 62.43816" y="0" font-family="Times" font-size="6.96000004" style="-inkscape-font-specification:Times-Roman">OMC - Martin Weinelt</tspan>
      </text>
  </g>
  <g fill="#0f0" clip-path="url(#d)" transform="matrix(.55206 0 0 -.55206 5215.9406 328.90294)">
    <text transform="matrix(1 0 0 -1 408.31536 40.07568)">
        <tspan x="0 6.96" y="0" font-family="Times" font-size="13.92000008" style="-inkscape-font-specification:Times-Roman">km</tspan>
      </text>
  </g>
  <g fill="#0f0" clip-path="url(#b)" transform="matrix(.29101 0 0 -.29101 4933.115 277.72845)">
    <text transform="matrix(1 0 0 -1 47.36952 20.40192)">
        <tspan x="0 3.96 7.9200001 11.88 15.84 17.82 20.900881 24.86088 28.820881 30.80088 34.76088 38.720879 40.700878 44.660881 48.62088 50.822639 54.782639 58.742641 60.944401 64.904404" y="0" font-family="Times" font-size="7.92000008" style="-inkscape-font-specification:Times-Roman">2008 Jun 12 04:45:24</tspan>
      </text>
  </g>
  <g fill="#0f0" clip-path="url(#c)" transform="matrix(.29101 0 0 -.29101 4933.115 277.72845)">
    <text transform="matrix(1 0 0 -1 134.16096 20.88)">
        <tspan x="0 5.0251198 11.21256 15.85488 17.594879 19.91256 21.652559 27.84 30.930241 33.247921 35.1828 37.11768 40.597679 42.337681 48.907921 51.998161 53.933041 57.41304 60.503281 62.43816" y="0" font-family="Times" font-size="6.96000004" style="-inkscape-font-specification:Times-Roman">OMC - Martin Weinelt</tspan>
      </text>
  </g>
  <g fill="#0f0" clip-path="url(#e)" transform="matrix(.29101 0 0 -.29101 4933.115 277.72845)">
    <text transform="matrix(1 0 0 -1 408.31536 40.07568)">
        <tspan x="0 6.96" y="0" font-family="Times" font-size="13.92000008" style="-inkscape-font-specification:Times-Roman">km</tspan>
      </text>
  </g>
  <g fill="#0f0" clip-path="url(#f)" transform="matrix(.28368 0 0 -.28306 112.80302 248.19118)">
    <text transform="matrix(1 0 0 -1 47.36952 20.40192)">
  <tspan x="0 3.96 7.9200001 11.88 15.84 17.82 20.900881 24.86088 28.820881 30.80088 34.76088 38.720879 40.700878 44.660881 48.62088 50.822639 54.782639 58.742641 60.944401 64.904404" y="0" font-family="Times" font-size="7.92000008" style="-inkscape-font-specification:Times-Roman">2008 Jun 12 03:54:25</tspan>
</text>
  </g>
  <g fill="#0f0" clip-path="url(#g)" transform="matrix(.28368 0 0 -.28306 112.80302 248.19118)">
    <text transform="matrix(1 0 0 -1 134.16096 20.88)">
  <tspan x="0 5.0251198 11.21256 15.85488 17.594879 19.91256 21.652559 27.84 30.930241 33.247921 35.1828 37.11768 40.597679 42.337681 48.907921 51.998161 53.933041 57.41304 60.503281 62.43816" y="0" font-family="Times" font-size="6.96000004" style="-inkscape-font-specification:Times-Roman">OMC - Martin Weinelt</tspan>
</text>
  </g>
  <g fill="#0f0" clip-path="url(#h)" transform="matrix(.28368 0 0 -.28306 112.80302 248.19118)">
    <text transform="matrix(1 0 0 -1 408.31536 40.07568)">
  <tspan x="0 6.96" y="0" font-family="Times" font-size="13.92000008" style="-inkscape-font-specification:Times-Roman">km</tspan>
</text>
  </g>
  <g fill="#0f0" clip-path="url(#f)" transform="matrix(.14954 0 0 -.14921 -32.53018 221.95189)">
    <text transform="matrix(1 0 0 -1 47.36952 20.40192)">
  <tspan x="0 3.96 7.9200001 11.88 15.84 17.82 20.900881 24.86088 28.820881 30.80088 34.76088 38.720879 40.700878 44.660881 48.62088 50.822639 54.782639 58.742641 60.944401 64.904404" y="0" font-family="Times" font-size="7.92000008" style="-inkscape-font-specification:Times-Roman">2008 Jun 12 04:45:24</tspan>
</text>
  </g>
  <g fill="#0f0" clip-path="url(#g)" transform="matrix(.14954 0 0 -.14921 -32.53018 221.95189)">
    <text transform="matrix(1 0 0 -1 134.16096 20.88)">
  <tspan x="0 5.0251198 11.21256 15.85488 17.594879 19.91256 21.652559 27.84 30.930241 33.247921 35.1828 37.11768 40.597679 42.337681 48.907921 51.998161 53.933041 57.41304 60.503281 62.43816" y="0" font-family="Times" font-size="6.96000004" style="-inkscape-font-specification:Times-Roman">OMC - Martin Weinelt</tspan>
</text>
  </g>
  <g fill="#0f0" clip-path="url(#i)" transform="matrix(.14954 0 0 -.14921 -32.53018 221.95189)">
    <text transform="matrix(1 0 0 -1 408.31536 40.07568)">
  <tspan x="0 6.96" y="0" font-family="Times" font-size="13.92000008" style="-inkscape-font-specification:Times-Roman">km</tspan>
</text>
  </g>
  <g fill="#0f0" clip-path="url(#f)" transform="matrix(.285 0 0 -.28438 2402.9558 248.63582)">
    <text transform="matrix(1 0 0 -1 47.36952 20.40192)">
  <tspan x="0 3.96 7.9200001 11.88 15.84 17.82 20.900881 24.86088 28.820881 30.80088 34.76088 38.720879 40.700878 44.660881 48.62088 50.822639 54.782639 58.742641 60.944401 64.904404" y="0" font-family="Times" font-size="7.92000008" style="-inkscape-font-specification:Times-Roman">2008 Jun 12 03:54:25</tspan>
</text>
  </g>
  <g fill="#0f0" clip-path="url(#g)" transform="matrix(.285 0 0 -.28438 2402.9558 248.63582)">
    <text transform="matrix(1 0 0 -1 134.16096 20.88)">
  <tspan x="0 5.0251198 11.21256 15.85488 17.594879 19.91256 21.652559 27.84 30.930241 33.247921 35.1828 37.11768 40.597679 42.337681 48.907921 51.998161 53.933041 57.41304 60.503281 62.43816" y="0" font-family="Times" font-size="6.96000004" style="-inkscape-font-specification:Times-Roman">OMC - Martin Weinelt</tspan>
</text>
  </g>
  <g fill="#0f0" clip-path="url(#h)" transform="matrix(.285 0 0 -.28438 2402.9558 248.63582)">
    <text transform="matrix(1 0 0 -1 408.31536 40.07568)">
  <tspan x="0 6.96" y="0" font-family="Times" font-size="13.92000008" style="-inkscape-font-specification:Times-Roman">km</tspan>
</text>
  </g>
  <g fill="#0f0" clip-path="url(#f)" transform="matrix(.15024 0 0 -.1499 2256.9453 222.27425)">
    <text transform="matrix(1 0 0 -1 47.36952 20.40192)">
  <tspan x="0 3.96 7.9200001 11.88 15.84 17.82 20.900881 24.86088 28.820881 30.80088 34.76088 38.720879 40.700878 44.660881 48.62088 50.822639 54.782639 58.742641 60.944401 64.904404" y="0" font-family="Times" font-size="7.92000008" style="-inkscape-font-specification:Times-Roman">2008 Jun 12 04:45:24</tspan>
</text>
  </g>
  <g fill="#0f0" clip-path="url(#g)" transform="matrix(.15024 0 0 -.1499 2256.9453 222.27425)">
    <text transform="matrix(1 0 0 -1 134.16096 20.88)">
  <tspan x="0 5.0251198 11.21256 15.85488 17.594879 19.91256 21.652559 27.84 30.930241 33.247921 35.1828 37.11768 40.597679 42.337681 48.907921 51.998161 53.933041 57.41304 60.503281 62.43816" y="0" font-family="Times" font-size="6.96000004" style="-inkscape-font-specification:Times-Roman">OMC - Martin Weinelt</tspan>
</text>
  </g>
  <g fill="#0f0" clip-path="url(#i)" transform="matrix(.15024 0 0 -.1499 2256.9453 222.27425)">
    <text transform="matrix(1 0 0 -1 408.31536 40.07568)">
  <tspan x="0 6.96" y="0" font-family="Times" font-size="13.92000008" style="-inkscape-font-specification:Times-Roman">km</tspan>
</text>
  </g>
  <g fill="#0f0" clip-path="url(#j)" transform="matrix(.28368 0 0 -.28306 188.03918 -819.29398)">
    <text transform="matrix(1 0 0 -1 47.36952 20.40192)">
  <tspan x="0 3.96 7.9200001 11.88 15.84 17.82 20.900881 24.86088 28.820881 30.80088 34.76088 38.720879 40.700878 44.660881 48.62088 50.822639 54.782639 58.742641 60.944401 64.904404" y="0" font-family="Times" font-size="7.92000008" style="-inkscape-font-specification:Times-Roman">2008 Jun 12 03:54:25</tspan>
</text>
  </g>
  <g fill="#0f0" clip-path="url(#k)" transform="matrix(.28368 0 0 -.28306 188.03918 -819.29398)">
    <text transform="matrix(1 0 0 -1 134.16096 20.88)">
  <tspan x="0 5.0251198 11.21256 15.85488 17.594879 19.91256 21.652559 27.84 30.930241 33.247921 35.1828 37.11768 40.597679 42.337681 48.907921 51.998161 53.933041 57.41304 60.503281 62.43816" y="0" font-family="Times" font-size="6.96000004" style="-inkscape-font-specification:Times-Roman">OMC - Martin Weinelt</tspan>
</text>
  </g>
  <g fill="#0f0" clip-path="url(#l)" transform="matrix(.28368 0 0 -.28306 188.03918 -819.29398)">
    <text transform="matrix(1 0 0 -1 408.31536 40.07568)">
  <tspan x="0 6.96" y="0" font-family="Times" font-size="13.92000008" style="-inkscape-font-specification:Times-Roman">km</tspan>
</text>
  </g>
  <g fill="#0f0" clip-path="url(#j)" transform="matrix(.14954 0 0 -.14921 42.70598 -845.53328)">
    <text transform="matrix(1 0 0 -1 47.36952 20.40192)">
  <tspan x="0 3.96 7.9200001 11.88 15.84 17.82 20.900881 24.86088 28.820881 30.80088 34.76088 38.720879 40.700878 44.660881 48.62088 50.822639 54.782639 58.742641 60.944401 64.904404" y="0" font-family="Times" font-size="7.92000008" style="-inkscape-font-specification:Times-Roman">2008 Jun 12 04:45:24</tspan>
</text>
  </g>
  <g fill="#0f0" clip-path="url(#k)" transform="matrix(.14954 0 0 -.14921 42.70598 -845.53328)">
    <text transform="matrix(1 0 0 -1 134.16096 20.88)">
  <tspan x="0 5.0251198 11.21256 15.85488 17.594879 19.91256 21.652559 27.84 30.930241 33.247921 35.1828 37.11768 40.597679 42.337681 48.907921 51.998161 53.933041 57.41304 60.503281 62.43816" y="0" font-family="Times" font-size="6.96000004" style="-inkscape-font-specification:Times-Roman">OMC - Martin Weinelt</tspan>
</text>
  </g>
  <g fill="#0f0" clip-path="url(#m)" transform="matrix(.14954 0 0 -.14921 42.70598 -845.53328)">
    <text transform="matrix(1 0 0 -1 408.31536 40.07568)">
  <tspan x="0 6.96" y="0" font-family="Times" font-size="13.92000008" style="-inkscape-font-specification:Times-Roman">km</tspan>
</text>
  </g>
  <g fill="#0f0" clip-path="url(#j)" transform="matrix(.285 0 0 -.28438 2478.1919 -818.84936)">
    <text transform="matrix(1 0 0 -1 47.36952 20.40192)">
  <tspan x="0 3.96 7.9200001 11.88 15.84 17.82 20.900881 24.86088 28.820881 30.80088 34.76088 38.720879 40.700878 44.660881 48.62088 50.822639 54.782639 58.742641 60.944401 64.904404" y="0" font-family="Times" font-size="7.92000008" style="-inkscape-font-specification:Times-Roman">2008 Jun 12 03:54:25</tspan>
</text>
  </g>
  <g fill="#0f0" clip-path="url(#k)" transform="matrix(.285 0 0 -.28438 2478.1919 -818.84936)">
    <text transform="matrix(1 0 0 -1 134.16096 20.88)">
  <tspan x="0 5.0251198 11.21256 15.85488 17.594879 19.91256 21.652559 27.84 30.930241 33.247921 35.1828 37.11768 40.597679 42.337681 48.907921 51.998161 53.933041 57.41304 60.503281 62.43816" y="0" font-family="Times" font-size="6.96000004" style="-inkscape-font-specification:Times-Roman">OMC - Martin Weinelt</tspan>
</text>
  </g>
  <g fill="#0f0" clip-path="url(#l)" transform="matrix(.285 0 0 -.28438 2478.1919 -818.84936)">
    <text transform="matrix(1 0 0 -1 408.31536 40.07568)">
  <tspan x="0 6.96" y="0" font-family="Times" font-size="13.92000008" style="-inkscape-font-specification:Times-Roman">km</tspan>
</text>
  </g>
  <g fill="#0f0" clip-path="url(#j)" transform="matrix(.15024 0 0 -.1499 2332.1814 -845.21092)">
    <text transform="matrix(1 0 0 -1 47.36952 20.40192)">
  <tspan x="0 3.96 7.9200001 11.88 15.84 17.82 20.900881 24.86088 28.820881 30.80088 34.76088 38.720879 40.700878 44.660881 48.62088 50.822639 54.782639 58.742641 60.944401 64.904404" y="0" font-family="Times" font-size="7.92000008" style="-inkscape-font-specification:Times-Roman">2008 Jun 12 04:45:24</tspan>
</text>
  </g>
  <g fill="#0f0" clip-path="url(#k)" transform="matrix(.15024 0 0 -.1499 2332.1814 -845.21092)">
    <text transform="matrix(1 0 0 -1 134.16096 20.88)">
  <tspan x="0 5.0251198 11.21256 15.85488 17.594879 19.91256 21.652559 27.84 30.930241 33.247921 35.1828 37.11768 40.597679 42.337681 48.907921 51.998161 53.933041 57.41304 60.503281 62.43816" y="0" font-family="Times" font-size="6.96000004" style="-inkscape-font-specification:Times-Roman">OMC - Martin Weinelt</tspan>
</text>
  </g>
  <g fill="#0f0" clip-path="url(#m)" transform="matrix(.15024 0 0 -.1499 2332.1814 -845.21092)">
    <text transform="matrix(1 0 0 -1 408.31536 40.07568)">
  <tspan x="0 6.96" y="0" font-family="Times" font-size="13.92000008" style="-inkscape-font-specification:Times-Roman">km</tspan>
</text>
  </g>
  <path fill="#fff" d="m367.89677 199.56885-.26478.57792.11033.52839.15445.2642.5847-.20917-.95428.42382-.52954 1.26594-.42473.95218.21512.688-.1048.42382-.0551.20914.0551.055.31441.10458.42474-.21466.26477.15963-.31993.52839-.41922.055.26476.2642-.21512 1.10631.36958.4238-.63435.10458h-.0496l-.68951.055-.26478.688.0496.84213-.89911.52839-.10481-.31373-.42474.20914-.1048.26419.42473.63298-.47989-.26421.31993.055-.26477-.36877-.15996.57794.1048-.57794-.89911 1.00174h.26476v.58343l.0551-.15961.0496-.055v.055l.11033.26417.41921.055h.0551l-.31993.36879.26477.20915-.57919.15961-.15996.52839-.47438-.055.57918.95221-1.32385-.20918.10481-.31921-.36957.055.0551-.2642-.42474-.15962-.42473.36878h-.57919l.31441.79257-.52954.36878h-.0496l-.42474.055-.0551-.2642-.63434.36878-.15997.58342-.52954-.42382.0551.2642-.31993-.15962-.26476.21466.10481.26419.26476-.15961c-.66822.4787-.70562 1.63938-.79431.47334l.4799-1.79431-.4799-.2642.31993.0496-.1048-.20917-.89912-.31922-.5847.58342v-.36877l-.63434.15962.20961-.37427-.47439-.0496-.21512.63296.21512.47335-.21512.055-.20961.10457.31993.21467-.26478-.055-.42473.52838v-.2642l-.52953.15961-.0551.20917.26477-.10458-1.26868.9522.1048.4238-.26477-.15962.42473.73755-1.53897.4238.21513.89717.79431.58342.15996 1.32095.0496.20918-.26478-.20918-.1048.0496h-.26477l-.15996.055h-.26478v-.10458l-.0496-.10459v-.63844l-.0551-.10459v-.47335l-.0551-.10455v-.1101l-.41921-.26418-.21513.1596.15996.31923-.52954-.055.68951.79257-.63435-.20915-.37509-1.37601.0551.52839-.52954.63295.31993.68802-.0551.47885-.10481.68251.63435-.10458.52954.31924.20961.52838-.20961.42379.42474.20918-.5847-.26421-.15997-.9522-.57919.15962.0496.89716-.89911 1.21639-1.00392-.4238.89912-.15963.63434-1.26592-.3144-.42382.10479-.84211.0496-.74305-.26476-.47333.31993-1.00725-.31993-.1541-.52954-.055-.36958 1.05676-.47438.31924-.1048.89715-.0551.36878.36957.055.31993.52839-.36957.63297-.74467-.95221.21513.10459-1.43417-.89717-.20961.20916.1048.63846h-.36958l-.1048.31373-.1048-.57792-.5847.20915-.5847-.15961-.20961.2642-.47438-.15963.26477-.47333.31441-.055-.15996-.0496-.63435.36878.0551-.20916-1.27419.10458.0551.26419-.36958-.10457-.31993.47334-.47438-.15962-.0551-.57792.63434-.055.0551-.2642-.63435-.84761.0496.42382-.89911 1.68972-.31442-.68249-.63986.15411-.36958.11007-.15996.0496-.0496.31924-.15996.52838-.1048-.15961-.31993-.42382-.20962.055.20962-.10458-.31442-.47885-.26478.21466.20962.57792-.42474.26419-.36957-1.05677.26476-.63297.42474-.20914-.31993-.63848.26477.055-.0496-.84762 1.32385 2.00897.41922-.15961.63986-.20917.0496-.84762v-.10456l-.57919-1.48059-.37509-.31373-.31441.20916.36957-.26421-.26476-.26418.15996-.20916.20961.20916-.10481-.31373-.36957.10457-.0551-.36876h-.26477l.0551-.31925.0496-.15962.26476.31924.31994-.055-.10481-.63296-.47989.055.42473-.21464-.0496-.20915-.47989.26418-.20961-.055.42474-.31373-.84947.26419.63434-.31923-.15996-.31925-.79431.37429v-.055l-.1048-.52838-.15998.26417-.15444.20917.0496-.31372v-.055l-.63435.15959h-.0551l.11033-.055.2096-.1541-.26476.0496.26476-.15961-.26476-.0496-.15996.31372-.0496-.4183-.63987.31375-.26476-.20917.15996.36876-.26477-.31921-.36957.31921.20961-.31921-.20961-.10459-.0551.21466-.15444-.21466-.0551.4238-.42474-.26418.0551.36877-.42474-.4238v.21465l-.5847.0496.26477.21466-.36958-.21466-.1048.21466v-.15962l-.5847.15962.21512.20916-.58469-.26419.21512.21465-.31993-.11008-.0551.26419-.20962-.10457.15997-.20916h-.89911l.1048.31373.52954.055-.52954.15961-.26477-.26419.15997-.15962-.31993-.2642-.31994.31924-.0496-.31924-.10481.31924v-.58341l-.0551.47334-.31993-.52838-.20962.47884.10481-.2642-.20961.10457v-.26417l-.0551.20914-.0496-.47336-.21513.15963-.26476.0496.0551.37428-.15997-.26421.10481.20915h-.26477l.26477.36878.15996-.0496-.1048.31373.26477-.0496-.15997.15411-.31993-.0496.15997-.26418-.36958-.47885v.26419l-.15997-.20916-.1048.20916.20961.11008-.36957-.055-.10481.20914h.20961l-.36958.1101.63435.26418-.89911-.21466-.1048.2642.31993.21465-.42474-.055.10481.26419h-.20962v-.31923l-.26476.21466-.15998.73753.26478.36878.89911-.0495.10481.31372.63434-.26418-.94875.90266.15444.10456-.31441.20916.31441-.10458-.47437.26419-.42474 1.00174-.26477-.0496-.47438.63296.31441.47335.5847-.26418.20962.47883 1.00943-.47883.52954-.63296.15997.15961-.11033-.31924.42474.31924.26477-.15961-.15997.31922.47989-.055-.10479-.26418.47437.10457.20961-.79257-.1048-.2642 1.53898-1.10632-.0551.26421.84947.0496.31441.055.58471-.15962.47437-.57793v.20915l.36958-.31922v.26418l.26477-.15411.37509.47334-.26478.73755-2.27812.21466-.63434.89715-.5847.42382v.52838l.26477.0496-.36958.31923 2.06301.95221-.20961.26418.26476.688-.74466-.47883-.20961.21465-.52954-.79259-.79431-.37427-.42473.63848.21512.26418-.63987.57792-.36957-.0496.15997-.79256-.36957-.15962-.79432.36876-.7943 1.00174-.21514-.20915.58471-.2642-.47438.20916-.26477-.10458v-.0496l-.15997.15414v.055l.15997.10459-.21512-.0496-.31442-.055.36957-.055-.47989-.20917.0551-.52838-1.26868-.73754-.26478.20915.10481-1.05676-.74467-.5284.31993-.15962-.26477-.31373.15997-.52839.57918-.37427.74466.15963v-.4238l.73916-.31375-.79432-.4238-.31441.20914.41922-.0496.11032.36875-.21513-.20915-.2096.2642.1048-.2642-.20961-.055v-.055l-1.21904.79258.15997.055-.21513.36879-.15997-.10459-.26477.84763v-.63848l-.31442.21466.10481-.36876-.26478-.2642-.15996.2642-.15997-.68802-.3144-.055-.21513.42381-.26477-.10457.31993-.5284-.73915.15962-.0551.36878-.31994-.42382v.42382l-.68398-.9522-.42474.36876-.15997-.10456-.63434-.31924v-1.00172l-.58471.688-.26477-.58345.21514-.31372-.42474-.63846-.1048.37427v-.21467l-.26477.31924.0496 1.05679-.52954.63296v.42379l-.42474.20916-.0496.10457-1.2742.63848-.57919-2.75202.15997-.47335-.52954-.58342-.37509.63847-1.21353.73754-.74467.10458.10481.21465-.31441.0496.0331.22568-.7226.46234.31993 1.1118-.4799 1.2109.4799.37428.31441 1.26592.4799.055.15445.36876.42473-.21465.21513.15962.1048.055.0496-.21465.0551-.20915.31993-.26419.10481.055h.73914l.89913.73754.42473-.52839.31993-.055.31442.26421.11031 1.27141 1.37351.52839.10479.89716-.57918 1.26593.20961 3.43452-.31442.90266-.58469.20914.1048.26419.5847-.26419.26477.15962.10481-.74304.42474-.15411.26476.52839-.0551.47333.21513-.10457-.21513-1.9044.26478-.20916-.36958-.688.36958-1.32096v-.95218l.5847-.73755.57918.4238-.41922.68251h.41922l-.47438 1.6402.26478.47335v.68799l-.15997-.42382.31993 1.0568v.79256l-.74467.63847-.0496.79258-.0551.73754.15997.10457h-.20962l-.0551.42382.73916 1.05677h-.20962l-.47438-.84761-.26477.11007-.21513.84212.26477.10456-.1048.52841.20961-.20917.11032.52838.26477-.89714.26477.4238-.0551-.52838.26477.1541.0551.47886.25926-.31373.0551.25869.15997-.52838-.15997-.57792-.26478-.11008.19307.88615-.35303-1.04027.26478.15412.11031-.26419.1048.26419.20962-1.10631.21512.0496.1048.90265.10481-.37427.15997.42382v-.688l.6895.42381.52954.9522-.52954.10458.94876-.0496.63986.57793.0496-1.42555-.2096-.10458 1.00391-.21467.74468-.84211-.0551.20916.31993.10457.41922-.63296-.0441.19265-.0607.022.0551-.006v.006l.0166-.006.45784-.0496.31993-.2642.63434.20916.0551.4238-.3751-.36876.15997.26418-.15997.055.74468.63294-.11474.2952-.68471-.12269.30902.19762-.27517.66927.24698.34219 1.3475.15139-.45858-.33494-.11695-.21358-.0165-.42729-.12251-.21539.72963-.0775-.26476.2642.63986-.10458 1.69342.57793-.52954.21465-.36958-.2642.1048.47335-.6895.36876-.47438-.1596 1.00392 2.27315.52954.9522-.1048.73755-.36958.21465-.74466-.055-.10481-.0496-.84947-.52838-.84395-.84762-.36957-1.05678-.79432-.52839-1.32385-.15962-.90463-.89714-.10481.31923.26478.31374-.42475-.31374-.1048.20914-.95427-.95219-.47438.055-.20961.2642.41922.31372-.47438.47886.15996.31373-.26477-.15411v-.31924l-.21512.15962.31993.63296-.20962.10457.10481.5284h-.26477l.52954.36876-.5847-.10458.52954.31924.31994.9522.36957.26419.31993-.31923.26477.20915.52954 1.16685.63435.31374.52954-.10459.31441.42382.47989.10457-.5847.63296-.2096.79259-1.8534 1.42554-1.21904-.68251-.10481.84211v1.21641l.36957.95218.89912-.84762-.63435.74305.36958.26419.4799 2.5869-.0551.58342.52955.79258.15996 1.10631-.21513.79258.3751.74303.41921.68251.84947 2.48782-.26477.84212.31993 1.74477 1.10872.47335.4799-.10458 2.22297.63296.52954-.15411 2.16781.2642.26477-.42382 1.9637.2642.36958-.36878.68951.15412.41921-.41831.79432.0496.11032-.79256.26477-.15963.26476.21467 1.10873-.95221-.68951-1.05677-1.10872-.52838-.31993-.5284-.15996-.79257.26477-.47337-1.9582.94672-1.05909-.36878-.36957.055-.52953-.47883.42473-1.00173-.36958-.15963-.37508.74305-.31442-1.00724.20961-.4238-.73915-1.00175-.15997-1.376-.26477-.15411.36958.0496-.0496-.36876v-.055l.57919.2642.10481-.20916.31993.42382h.36958l.0551.15961.47437 1.73926.63435.42382.74466.9522.73915.4238 1.37902-.10458.31442 1.10631 1.85339.79258 1.2742.47886 3.49165.15412.11033.52837.47438.11008.1048.63296h.68951l-.10481.2642.42474-.15961-.26478.20916.52955.52839.94876-.0496-.20961.31372-.95428.055 1.42866 1.16136 1.00944-.26419.15996-.73755.47438.0496-.31993.21466v.15962h.31993l-.26477.26418.26477.36878-.26477.57791.63435 2.37776 1.90854 2.85658.31442.57792.26477.58342.79432.42381.47989-.15961.15997-.36878.73915-.15961-.26478-.10457.20961-.31923.11033-.10458.47438-.10459-.10481-.74304.20961-.36876.26477-.57792-.31442-1.00725.15445-.36876.5847-.055.20962-.36876.84946-.2642-.0551-.26421 1.43417-1.00172.63435-.74304 1.00391-.52839.4799-.57792-.15997-.36877.63435-.37427.15996-.36878.20962.36878.26477-.36878.31993.21465-.0551-.31921.15997.20914.2096-.26419.21513.11008.0496-.37428.26478.31925.21512-.58345.10481.37428.1048-.11008-.15996-.36877.58469-.1596 1.21905 1.376.15996-.31924v.31924h.5792l.26477.26418-.42474.10458.37509.2642.10481-.36878.52954 1.00174-.15996 1.00724.26476-.2642-.1048.31373.15997-.20915.26476.15962.10481-.2642.26476.10458.15997-.31923.41922-.2642-.20961-.20915.31993.10458.26477-.26419-.0551-.4238.42474.47883.26476-.15962.20961 1.00173.36957.63847v-.2642l.47991.52841-.0551.5779h.26477l-.26477.63296.1048.37428.15997-.26418-.0496.20915-.21513 1.05676.26477-.20914 1.11424.47334h.1048l.36958.9522.5847.47335 1.63827-.0496.31993-.31924h.26477l-.63435-.36876v-.79259l-.26477-.26418-1.21904-.21466-.89913.21466-.36957-.688-.15996-.20917-.4799.20917-.0496-.42382-.0551-.15962.52953-1.21087v-.055l-.0496-.1596-.11033-.42382h.0551l.6895-.41832v.52839l.68951-.31921h.63434l.47439.58341.26476-.31924.10481.31924.15996-.21465.89912-.0496-.10481.73754.36958-.15961.5847-.63297c-.10221-.0469-.17652-.13942-.26477-.20914h.47438l-.20961-.15962-.0551-.055.15997.055h.15997l-.10481-.055-.10481-.0496.31442-.11007h-.26477c-2.71379-1.02623-1.43142.41569 0 0l.21513-.10458-.0551-.15963.42474-.0496 1.10872-1.21638v-.73754l.15996-.11008-.63434-1.2109-.52954-.31923-.89912.055-1.2742-.68801.0551-.68799.36958-.47335-.1048-.26418.2096-.055-.2096-.15962.52954-.20916.15996-.47884.47438-.26421-.0496-.26419.52953.11009.20962-.42382.26477.0496-.10481.42381.26478.36878.26477-.15412-.15997-.74304.1048.10457.6895-.6825-.0551-.15961.42474-.21466-.0496-.20914.36958-.10459-.10481-.4238.20962.20914.0551-.26418h.15445l-.26477-.47335.74467.10457-.15997-.10457.31993-.42382.10481.10459.15996-.36879.20961.055.47438-.58344.11031-.31372h-.21511l.36957-.4238v-.2642l.21512.0496.15997-.57793h-.26477l.47438-.36876-.1048-.21466.20961-.15962-.15997-.15412.26478-.15961-.10481-.26419h.26477l-.26477-.36877.15996-.37427-.2096.11008.1048-.11008-.26477-.10458.31442-.10459.0551-.055.0551-1.05676h-.21513l.47988-.57793-.26475-.15961.1048-.31925h-.21513l.26477-.26418-.1048-.26419-.20961.37427.20961-.58342h-.15997l-.41922.10456-.52954.58344.68399-1.2164-.84396-.10456.5792-.42382-.79433-.055-.84395-.84212-.15996.0496-.47438.15962-.11032-.20914.15997-.74305.0551-.31375-.15997-.055.26477-.20914-.1048-.31923.36958-.79258.31993-.10457-.11033-.42382-1.05908.52839-.20961.52837-.26477.52841-.52953-.52841-.63435.31925-.21513-.47884.5847-.5284.10481-.94669.15997-.90267.26476-.47334.42474.20917-.0551 1.11179.31993-.31923-.1048.74305.63435-1.74478.89911-.63297.15997.63297.26476-.055-.21512.31924.0551.4238.26477-.26418-.0551.26418.21513-.21466v-.15411l.47438-.21465.52955.42379h-.26477l-.0497.36879.26478.055-.0551-.21465.2096.37427.15997-.21466.1048.89715.37509.15962-.15995.15962.20959.055.10481-.63846.21513.1596-.10481-.31372.20961.0496-.15996-.20917.36958-.21465-.10481-.31372.26477-.15963-.20961-.79256-.4799-.5284-1.05908-.47335-.63434.10458-.15997-.36876.37509-1.64021-.42474-.58342.10481-.68251-.20961-.21465.26477-.15962-.21512-.68249.74466-.21466.26477-1.3705-.5847-2.80156-.79431-2.00897-.15997-.4238-.57918-.52838-.42473-.31374-.58471-1.16685-.79431-.15412.21514-.11008-.15997-.26418-.79431.1596h-.15998l-.2096.42382.15445.15963v.73752l-.36958-.57792.1048.63297-.52953-.47885-.20961.47885h-.31993l-.26477-1.84937-.36957-1.21638-.5792-1.58515.31442-1.2164h.26478l-.15998-.26418.42475-.79258-.26477-.36877.63434-.79258v.47334h.21512l.0496-1.53012h-.20961l-.0551.31922-.26478-.1596-1.00392-1.37601-.15996-1.21638v-.15412l.31993.26419.15996.1541.26477.055-.0551-.10457-.0551-.15962.37509.20914-.74467-1.00173v-.31922l-.63433-.15413-.10482-.47884.15997-.20915.15445.42382 1.05908.4183.26478.74304.84946 1.05676.73915.95221.0551.57792.6895.68801 1.00392.688 2.91248 1.00173-.79432-1.32096-.47437-.15963v-.73754l-.1048-.055-.15997-.0496-.10481-.055-.15997-.0496-.15996-.11007-.31993-1.05678-.94877-.31373v-.52839l-.84946-.055-.26477-.31373-.15996.47335-1.42866-1.11183-.0551-.36876.21512-.0496-.52953-.63846.47438.11008-.42473-.37427-.20962-.79259.47438-.26418-.36958-.15413-1.10872-1.21639-.79431-1.21638v-.688l-.37509-.15962-1.10873.37427h.20962l-.36958.20915.31993.47334-.21513-.0495.0551.31372-.36957-1.32095-.26476-.15412-.3751-.21465-.57918.055-.10481-.26421h.63435l-.26477-.58341.47438-.31373.0551-.52838-.21512-.055.21512-.10457-.21512-.26419-.15445.31372-.31994-.26418h-.31993l-.0496.26418-.0551-.52838-.20962.11007v-.21466zm-2.80215 2.32269-.11033.52841.15997.055.52954.20914-.15996-.20914zm-34.10571 2.06403-.15996.84211-.15445-.2642-.15997.2642v-.63296l-.52953.84762-.36958-.37428.0496.52838-.20961.37427-.26477.41831.26477.47886.31441.57792.52954.26419.0551-.20914.0551.20914.73915-.68249.20962.15411-.15445-.20917.31441-.26418-.36958-.055.10481-.52838-.42474.1596.4799-.31373-.36958-.11007.15445-.20915.15997-.10458-.68951-.10457.63987-.15962.41922-.58343-.47439.26419.31993-.31373-.42473.10458.15997-.2642-.21513.10458zm35.84878 1.00173-.0496.31923.26476-.15962zm-4.50109 3.01069-.63435.63297.52954.055.31993-.26419zm12.65932.15962v.36877l.42473.2642zm-32.30196.10459-.79432.79258.63435.055-.26477.15961h.26477l-.1048.26419-.63435-.31925-.21513.20918.42474.26417-.36957-.1541v.2642l-.15997-.31924-.26477.42382-.1048.4238 1.42865-.58342.20962.055.26475.0496.11034-.36876.15444-.4238-.2096.055.36957-.42382-.79432.52839.47991-.58343-.42474.11007.10481-.31921.31993.055zm.89911.52838-.2096.31923.15444.10456.15996.15963h-.36958l.15998.47334.79431-.0496.0496-.42382-.31441-.055.26476-.20914-.42473.20914.1048-.42379.0551-.10458-.26477.15961zm18.10918.055-.79431.42382.36957.31373-.20961.055h-.36958l.26477.52839.63436.15962.15996-.31924.26477-.63297-.68951-.10456.58471.0496zm-19.00829 1.00173-.10481.21466.36958-.11008zm20.3873.055-.42473.10457.1048.52837.0551.10459v-.0496l.42473-.47886zm-20.54727.20914-.47438.31925.31442.10455-.20962.20917.36958-.0496.26478-.42379zm10.486.58342-.26477.95221.36957.10458.42475-.31924v-.36876zm-5.61532.10459-.73916.36876.63434-.0496zm-24.67328.42382-.26477.36876-.31993-.15962-.0551.63296-.47437-.2642.1048.52839-.31441-.63295-.0551.31922-.20961-.21466.0496.37427-.2096-.15961.1048.2642-.20961-.055.36958.63296.36957.63845 1.16389-.63845.36957.21465.4799-.52839-.26478-.42381.20962.10459.0551-.2642-.26477.055.15997-.21466-.42474-.15409v.26419h-.31993zm25.73235.0496-.0386.25318.35854-.25318h-.26477zm-23.035.055-.15997.10458.21513.10458.36957-.10458zm22.61026.10458v.31924l.26477-.15963zm5.56019 0-.4744.688.63436.2642.58469-.15962-.0551-.15962-.0496-.10458-.0551-.15962-.0277-.0276-.0772-.18162h-.0551l-.2096-.15962-.10481.2642zm-5.17406.0991-.011.006v.055zm-23.20601.0605-.36957.42379.15446-.10456zm29.28468.10457.20962 1.16135.5847-.68251-.4799-.37427-.0496.31923zm-29.07506.10457-.47438.42382-.31993-.20917.1048.47334-1.05908.15962h.42473l.26477.10459-.15997.2642v-.20916l-.73914.26419-.15996.20915.15996-.10458.26476.688-.36957-.055-.26476.36879.15996.055-.47989.15961-.10481.20914-.20961-.57792-.37509-.11007.15996.26419-.20961.21466-.58469-.36878-.10481 1.00174.36958.31923-.47439-.055-.1048-.52838-.84947-.2642.26477.89716.31993-.10458.47438 1.48059.42473.47334.15996-.10459-.11031-.52838.15996.20917h.68951l.20961-.36878-.15445-.52839h-.0551l.42474-.2642.0496-.1596-.0496-.20916.15997.2642.2096-.15962.15997-.63296.79431-.89717v-.74304l.20961.47886v-.36876l.21512.26417.79432-.11007-.37509-.94668.95427.15409-.15997-.73754-.57918.2642zm27.32648 0 .10481.26419.26476-.0496.0551-.21465zm-28.43521.31923.1048.20916.1048-.15412zm11.06518 1.48059v.15962l.31993-.15962zm.36958.15962-.52954.15411.27029.0496zm-.25925.20365-.006.006.31993.055zm.94876-.15412-.42474.10458.42474.11007zm43.79188.2642.42473.63296-.15996-.41831zm-21.7608.055-.26476.20916.3144.10456zm-9.2173.31372-.79432.42382-.6895-.10458-.26478.10458-1.00392.47884.0551.4183-.4799.26421.21513.21465-.26477-.15961-.37509.15961.42473.26419-.47437.10457.57918.26421.0551-.42382.2096.15961-.15445-.26418.26478.20915v-.36877l.15445.21466.11031-.42382.15446.10459.26476-.20915.3751-.37427 1.53346-.47335zm-3.9164 2.27317v.21466l-.31993.0496.26478.15962-.73916.42382v.31372l.42474.055-.11033.688.90463.2642-.31992-1.11182.15997-.52838.47437-.31373-.31442-.21465zm3.97155.58342-.0551.31372.26476-.0496.0551-.2642zm26.79143.89717v.20914l.42474.0496zm.42474.25869.0551.0329v-.0276zm.0551.0329v.55591l.63435.52838.84948.36877.63433.52839 2.27813 2.0585-.31993-.57792.26477-.31922.31993.20914-.15996-.26419-1.00944-.15412-.68399-.84762.15445-.52837h.4799l-.95428-.31925-1.05909-.36876zm-50.57109.18164-.21514.15962.11033.31922.31441-.31922zm.3144.21465-.47437 1.00173.26476-.26419h.52954l.20962-.42381-.31442.15962.1048-.2642zm16.89565.20915-.42473.15962.1048.36877.4799-.10457zm2.80767.10458-.11032.31924.26477.31922.15997-.1596v-.055l-.0496-.0496zm36.53828.31924-.11033.52839.3751.84762zm-56.556.89715.0496.2642.15997-.15962zm3.01727 0-.26478.31923.73916-.26419zm1.79823.42381v.26419l.21513.10458-.0551-.26421zm-.26477.15962-.26478.36876v.055l.63986.0496zm52.15972.10457-.1048.20916.21512.47884.15445.20917zm-.15445.63296.1048.47886-.31993.41831-1.16388.15962 1.05909 1.32097-.26478.52837.20961.10459v.52838l.5847.4238.20961-.68801-.47438.21467-.1048-.26419.26476-.10458v-.52839l.68951-.42382-.31993-.84762.15997-1.1063-.10481.31372zm-67.14681 1.05679v.47883l.26476.0496.10481-.2642zm2.7525 1.79981-.31993.6825.4799-.0495.42474-.52839zm65.07831.47333-.15446.31924.31442.10458-.36958.20915.1048.42383.0551.15961.31442.42381.0551-.15963v-.055l.15996.15963.10482.15961.42473.95219.0496 1.79431-.3144.055-.0551-.47886-.1048.36876.52953 1.27144-1.00391 1.53012-.31993 1.84934.2096.21466.4799-.58342-.10481-.42382.15446.10458.31993-1.21087.42473-.58344.2096.63297.42475-.15963v-.26418l.0551-.73754h-.26477l-.11032-.36877.15996.10456-.0496-.15959.20961-.10458-.0551.26417.37508-.63296-.0551-.52838.26477.20916-.15996-.52838.15996-.20916-.20961-.31925.1048-.10456h.0497l.11032.20915.1048.2642v-.10458l-.0551-.84211-.31441-.15962-.21512-.58344-.57919-.57791.1048-.31923-.4799-.95221zm0 9.30181-.31442 1.00174.31442.055h-.20962l.20962.26418.21511-.31922-.26476-.15961.1048-.26421.31993.26421.20961 1.00722.26477-.11008-.1048-.41831.20961.47335.15996-.58342-.31992-1.26593zm-65.87262-9.24677-.89912 1.10631.47439.47887.63434-.52839.21512-.68801zm-.20961 3.69872-.15996.31372.36957 1.64021.89911-.58344zm67.30126 3.48404-.31441.31924-.11031.63296-.15445-.055v.95219l.1048-.31373.31441.31373.0551-.31373v-.58342l.31994-.15961v-.63297zm-64.33915.10458-.2096.055.15996.26421zm2.4381 1.84936.0496.31922.15996.15963.0551-.36878zm-2.38293 1.21638-.15997.2642.42473.63297.63435.63845.15998-.11008-.26478-.10458zm16.09582 1.11181h1.11423l.84396.47335.11033.26419-.52955.74305.26477.31373-1.00944-.42382-.36957.31923.26477.36877-.63434-.36877-.15996.20918.31993.26417v.84762l.68398.68801-.3144.36877.0496.89716.26477-.68801h.42473l.42474 1.05676-.68951.1101-.36958-.52839-.31993.57791.11033.47887v-.21467l.36957.15963v.36876l-.26476-.20914-.15996.31372.31992-.0496.15445.42382-.36958 1.58516-1.37349-.31924-1.37901-1.32097.0551-1.05676.41921-.20914.26477-.58345.52955.055-.41922-.42379-.47991-1.84936.26477-.9522-.20959.20917-.0551-1.00175.63435-.68801.74466.2642zm-14.08247.36878.0496.20915.31993-.15412zm62.4306 1.11181-.15997.41832.15997-.0496zm-60.57721 1.42553.15446.63297.68951.20916v-.2642l.47989-.0496zm58.03432 4.38672-.31441.0496-.37509 1.64021.11031.36876.68399.26421zm1.64378 3.64366-.95428.73755.31993 1.43104-.26477.10457h-.11032v.31373l.31993.37429.0551.10456h.26476v-.26419l.26478-.10459-.0551.63297.36957-.26419.21512-.42381h.57919l-.15997-.36877.5847.10457.36958-.36876.1048.20914v-.36877l-.26477.26421-.15445-.15961.20962-.31374-.20962.0496-.26476.15963v.26419l-.26478-.15961-.26476.31924v.15962l-.37509.0495-.31442-.36876.36957-1.376-.36957-.31375zm2.43257 1.58517-.41921.47335.47438.055.0551.20914.41921-.26418-.26476-.47335zm.11032.73752-.37508.2642.11032.21466.41921.15963-.0497-.15963.15997-.10459zm-1.11424.2642.0551.4238.15445-.36876h.31993zm1.95819.11007-.42473.15412.11032.37427-.37509.36878v.26419l-.2096.15962-.31993.68251.0551-.31375-.26477.10458-.5847.9522-.1048.57793h.15996l.20961-.68251.47989-.21465.10481-.36877.31993-.10457v.57792l.52954-.2642.1048-.26418.1048.21465.15997-.36878-.26477-.15962.15997-.47884.31441.21466-.0496-.2642.20961-.4238-.20961-.47334-.21513.10456zm-1.32384.15412-.15997.90267-.0496.4183.1048-.4183.15998-.42382zm-.52954.31924-.15997.20915-.57919.2642.20962.68799.52954-.95219zm-1.10873.055-.74466.36879.31993.0496.31442.21465.15996-.15962zm2.00784 0-.20961.15413-.0551.1596-.1048.21468.15996-.055.26477-.36876zm-.57918.15413-.21513.055-.1048.63297-.0497.15961-.21512.20916.47989.11007.1048-.31923-.1048-.26419zm-8.84222.79257-1.05908.688-.26477.63296.36957.37428.36957-.11008.47438-.57793.26478-.84762zm-39.87548.688-.79432.10458h.52954zm46.33477.26419.0496.36877h-.15445l.10481.21465-.26478.47335-.79431 1.58517.42473-.63297.36958-.89714.0277-.055h.0221v-.0496l.47989-.68801zm2.063.89717-.15997.1596v.15962zm-1.69342 2.16857-.52955.2642-.26477.2642v-.20916l-.26477.2642.10481-.31924h-.42474l-.15444.36876-.0551-.20914-.47438 1.10631-.31993.31924h.15996l-.10481.26418-.90463.73755-.52954 1.11179-1.05908.89717-.15445.68801-.84947.36875-.2096-.0495-.4799.68249v.37427h.26477l-.1048.2642.31993-.1101-.26478.1101h.31441l-.15997.20915.37511-.31925.15444.63848.95428-.68799.10481.20914.7943-.688.37509-.20915v.10458l.57919-.42382v.2642l.26477-.20916.84948-.95218-.10481-.0496.10481-.055.2096-.42382-.26476.055.36957-.5284.11031-.055.41922-.52839-.0496-.31373.31441-.58343-.1048-.055.31993-.10456.36958-.36879-.68951.15963-.1048-.055.2096-.26421-.68398-.0496.47438-.37427-.26478-.0496.68951-.63296-.26477-.055zm-7.044 5.44348-.15996.20917.11031.10457.15445-.2642zm-11.75469.20917-.15996.21465.15996.15411zm16.47091 1.64018-.42474.2642-.31993.20917.31993-.0496zm-.90463.2642-.89911.57793.4799-.20916zm.11032.10459-.79431.58342-.31993-.055-1.00393.47334-.42472.47886-1.00944.52838-.41923.0496-1.53896.74305-.20962.26419-.42474.31373.89912-.36877-.1048.15962 1.00392-.42382.6895-.4238 1.21904-.57793 2.11817-1.27142.36957-.20917zm-6.46481.47334-.26477.21466.15997-.055.1048.055zm2.59806.31923-.42474.15961-.0551.2642.26477-.15961zm-10.96038.10457.1048.15963.10481-.15963zm3.01728 0-1.74859.42382.26477.36877 1.05908.10458.68951.37427.7943-.055.26478.58342.63435.0496.26477.055.89911.52839h2.11816v-.10459l.42473-.15961.10481-.15962h.26477l.36958-1.11181-.31442-.1541-.52954.20914-.1048.20915.1048-.26419-.26477.11008-.10481-.37428-.7943.2642.36957-.57792h-.31992l-.47439.36876.31442-.26418-.11585-.0386.0661-.0166-.21513-.0496-.20961.0496-.0551.11009.25373-.0606-.25373.11007-1.00392-.20914-.10481.26418-.6895-.21465-.20961-.0496-1.21905.0496.1048-.20915zm5.66497.10458-.36957.055-.0551.10458zm.73916.15962-.52954.26419-.15446.2642.47439-.20914.10481.20914.52953-.20914.10481-.21467-.36958.11007zm-2.80215.055.0496.15962.15996-.15962zm-17.47484.26421-.21513.0496.36958.11009-.31441-.055-.0551.20916-.1048.68801-.10481-.10459.26478.58345.2096.47333.89912-.15961.42474-.47335-.42474-.68799zm12.75861.95218-.2096.0496h.63435zm1.05909.20917-.20961.10456.26477.10458.36957.055v-.20914zm1.21905.63295-.26478.15962.47438.055zm.89911.31923.21513.15961v-.15961z"/>
</svg>