<?xml version="1.0" encoding="UTF-8" standalone="no"?>
<svg xmlns="http://www.w3.org/2000/svg" width="400" height="300">
  <path fill="#006eb6" d="M0 0h400v300H0z"/>
  <path fill="#fff" d="M199.9471 226.98796c-27.17781 0-51.05892-14.08097-64.75893-35.34815h125.75549l-16.85911-14.31379s-7.69401 2.56108-15.71084 2.56108h-15.9225c-3.72001 0-4.97942-.48147-6.65687-4.1698l-42.55525-93.407737c10.91132-5.92664 23.41544-9.302665 36.70801-9.302665 42.51822 0 76.98786 34.469592 76.98786 76.993102 0 42.51821-34.46964 76.98796-76.98786 76.98796m0-166.987891c-19.0869 0-36.7821 5.947729-51.34467 16.08121.005.01512 44.93121 98.794661 45.87842 100.874271 1.04249 2.28072 2.57173 2.93155 2.57173 2.93155h.005-8.01138c-3.72531 0-4.98472-.48147-6.65687-4.1698l-42.32758-92.899693c-2.86277 2.55583-5.5615 5.286236-8.08031 8.186003 13.01211 28.61186 38.1156 83.80366 39.09453 85.95194 1.0371 2.28072 2.57173 2.93155 2.57173 2.93155h-8.00622c-3.72531 0-4.98471-.48147-6.66217-4.1698l-34.24212-75.15693c-2.44472 3.70946-4.61959 7.61469-6.50339 11.684 12.99094 28.56416 28.66474 63.02324 29.43731 64.71118 1.03709 2.28072 2.57173 2.93155 2.57173 2.93155h-8.01152c-3.72001 0-4.97942-.48147-6.65687-4.1698l-22.48411-49.34963c-1.68803 6.20712-2.7252 12.68406-3.03741 19.34612 7.64111 16.80631 13.73707 30.20466 14.20802 31.24176 1.03724 2.28072 2.57173 2.93155 2.57173 2.93155h-8.00622c-1.81503 0-3.04268-.12019-4.02164-.66149 12.1337 35.35865 45.66674 60.77431 85.14228 60.77431 49.70424 0 89.99998-40.29569 89.99998-90.00007 0-49.70423-40.29574-89.999932-89.99998-89.999932"/>
</svg>