<?xml version="1.0" encoding="UTF-8"?><svg id="Layer_1" xmlns="http://www.w3.org/2000/svg" width="2400" height="1600" viewBox="0 0 2400 1600"><defs><style>.cls-1{fill:#fff;}.cls-2{fill:#273577;}.cls-3{fill:#243878;}</style></defs><rect class="cls-2" width="2400" height="1600"/><g id="layer1"><path id="path3002" class="cls-1" d="m1588.9004,799.9999c0,214.7838-174.1166,388.9005-388.9004,388.9005s-388.9004-174.1167-388.9004-388.9004,174.1166-388.9004,388.9004-388.9004,388.9004,174.1167,388.9004,388.9004h0Z"/><path id="path3002-4" class="cls-3" d="m1543.9659,804.5618c0,188.9594-153.1818,342.1412-342.1411,342.1412s-342.1411-153.1818-342.1411-342.1411,153.1818-342.1411,342.1411-342.1411,342.1411,153.1818,342.1411,342.1411h0Z"/><path id="path3022" class="cls-1" d="m824.7853,785.1738h743.5867l-18.2476-98.0805-130.0136-177.9133-182.4752-59.3045-187.0371,18.2476-125.4517,86.6757-59.3045,100.3614-41.0569,130.0136Z"/><path id="path3058" class="cls-1" d="m941.1132,979.6925c2.6381,11.6125,14.2438,28.368,21.9718,35.8976,24.1057,23.4869,37.4449,23.5191,37.4449,23.5191,0,0,82.6181-177.3972,199.3083-178.2038,111.7415-.7725,199.2787,183.1552,199.2787,183.1552,0,0,18.4529-6.6007,36.826-24.1381,17.5809-16.7811,18.8771-31.5652,18.8771-31.5652-128.3471-256.3785-372.5688-253.1967-513.7069-8.6649Z"/><rect id="rect3080" class="cls-1" x="1166.9264" y="847.8997" width="70.7091" height="250.9035"/><path id="path3058-8" class="cls-3" d="m940.2271,604.339c2.6381-11.6125,14.2438-28.368,21.9718-35.8976,24.1057-23.4869,37.4449-23.5191,37.4449-23.5191,0,0,82.6182,177.3972,199.3083,178.2038,111.7416.7725,199.2788-183.1552,199.2788-183.1552,0,0,18.869,6.175,36.826,24.1381,19.597,19.6036,18.8771,31.5652,18.8771,31.5652-128.3471,256.3786-372.5688,253.1967-513.707,8.665h0Z"/><rect id="rect3080-1" class="cls-3" x="1166.0402" y="485.2285" width="70.7091" height="250.9034"/></g></svg>